<svg width="2304" height="2304" viewBox="0 0 2304 2304" fill="none" xmlns="http://www.w3.org/2000/svg">
<g clip-path="url(#clip0_632_16)">
<mask id="mask0_632_16" style="mask-type:luminance" maskUnits="userSpaceOnUse" x="0" y="0" width="2304" height="2304">
<path d="M2304 0H0V2304H2304V0Z" fill="white"/>
</mask>
<g mask="url(#mask0_632_16)">
<path d="M1645.22 0H658.088C294.636 0 0 294.636 0 658.088V1645.22C0 2008.67 294.636 2303.31 658.088 2303.31H1645.22C2008.67 2303.31 2303.31 2008.67 2303.31 1645.22V658.088C2303.31 294.636 2008.67 0 1645.22 0Z" fill="#171717"/>
<mask id="mask1_632_16" style="mask-type:luminance" maskUnits="userSpaceOnUse" x="557" y="677" width="1189" height="1029">
<path d="M557 837C557 748.634 628.634 677 717 677H1586C1674.37 677 1746 748.634 1746 837V1546C1746 1634.37 1674.37 1706 1586 1706H717C628.634 1706 557 1634.37 557 1546V837Z" fill="white"/>
</mask>
<g mask="url(#mask1_632_16)">
<path d="M557 837C557 748.634 628.634 677 717 677H1586C1674.37 677 1746 748.634 1746 837V1546C1746 1634.37 1674.37 1706 1586 1706H717C628.634 1706 557 1634.37 557 1546V837Z" fill="#171717" stroke="white" stroke-width="342"/>
</g>
<path d="M1771.85 1371.86L1334.35 1108.31C1242.92 1053.23 1128.84 1130.18 1145.66 1235.58L1226.13 1739.95C1240.59 1830.54 1344.19 1875.52 1420.24 1824.22L1777.27 1583.4C1853.32 1532.1 1850.43 1419.2 1771.85 1371.86Z" fill="white" stroke="#171717" stroke-width="128"/>
<path d="M1459.16 1502.56L1700.39 1822.68" stroke="white" stroke-width="171"/>
</g>
<rect x="554" y="848" width="181" height="157" fill="#171717"/>
</g>
<defs>
<clipPath id="clip0_632_16">
<rect width="2304" height="2304" fill="white"/>
</clipPath>
</defs>
</svg>
